<mxfile host="app.diagrams.net" modified="2022-02-25T08:44:06.103Z" agent="5.0 (Macintosh; Intel Mac OS X 10_15_7) AppleWebKit/537.36 (KHTML, like Gecko) Chrome/98.0.4758.102 Safari/537.36" etag="CmxZAisPXgOzdp78lLQv" version="16.6.4" type="github">
  <diagram id="Ncu6DC8bcNuDE8dqbG5p" name="Page-1">
    <mxGraphModel dx="1401" dy="769" grid="1" gridSize="10" guides="1" tooltips="1" connect="1" arrows="1" fold="1" page="1" pageScale="1" pageWidth="827" pageHeight="1169" math="0" shadow="0">
      <root>
        <mxCell id="0" />
        <mxCell id="1" parent="0" />
        <mxCell id="adwV9YsxiGLbg9zO618Z-2" style="edgeStyle=orthogonalEdgeStyle;rounded=0;orthogonalLoop=1;jettySize=auto;html=1;exitX=1;exitY=0;exitDx=0;exitDy=0;" edge="1" parent="1" source="adwV9YsxiGLbg9zO618Z-1">
          <mxGeometry relative="1" as="geometry">
            <mxPoint x="120" y="90" as="targetPoint" />
          </mxGeometry>
        </mxCell>
        <mxCell id="adwV9YsxiGLbg9zO618Z-1" value="gotokuji" style="rounded=0;whiteSpace=wrap;html=1;fontStyle=1" vertex="1" parent="1">
          <mxGeometry x="40" y="220" width="70" height="30" as="geometry" />
        </mxCell>
        <mxCell id="adwV9YsxiGLbg9zO618Z-4" value="" style="rounded=0;whiteSpace=wrap;html=1;" vertex="1" parent="1">
          <mxGeometry x="140" y="70" width="70" height="30" as="geometry" />
        </mxCell>
      </root>
    </mxGraphModel>
  </diagram>
</mxfile>
